<svg version="1.1" xmlns="http://www.w3.org/2000/svg" viewBox="0 0 1841.5881044296868 236.83150255595237" width="1841.5881044296868" height="236.83150255595237">
  <!-- svg-source:excalidraw -->
  
  <defs>
    <style class="style-fonts">
      @font-face {
        font-family: "Virgil";
        src: url("https://excalidraw.com/Virgil.woff2");
      }
      @font-face {
        font-family: "Cascadia";
        src: url("https://excalidraw.com/Cascadia.woff2");
      }
    </style>
  </defs>
  <g stroke-linecap="round" transform="translate(30.16794210610408 28.181770804194045) rotate(0 42.06698083317275 63.83430587357022)"><path d="M1.43 -1.19 L82.92 -1.75 L82.37 129.13 L-0.18 126.47" stroke="none" stroke-width="0" fill="#5fdde5"></path><path d="M-0.51 0.27 C16.11 -0.03, 35.51 -1.71, 85.44 1.1 M-0.02 -0.36 C23.07 -0.07, 46.75 -0.26, 83.59 0.51 M83.92 1.73 C83.5 51.38, 82.27 101.14, 83.21 127.14 M84.24 0.6 C84.92 32.91, 84.01 65.13, 85.1 127.62 M83.95 127.04 C62.33 126.98, 39.77 128.05, 1.78 128.67 M84.33 128.13 C53.15 128.41, 22.28 129.27, -0.17 128.19 M1.12 127.57 C1.21 78.91, 1.88 26.35, -1.06 1.12 M0.51 128.08 C-0.37 84.49, 0.05 43.28, -0.37 0.23" stroke="#000000" stroke-width="2" fill="none"></path></g><g stroke-linecap="round" transform="translate(21.183672253825193 19.825237366732296) rotate(0 42.06698083317275 63.83430587357023)"><path d="M-1.19 -1.21 L82.39 -1.77 L85.6 127.49 L-1.2 127.8" stroke="none" stroke-width="0" fill="#5fdde5"></path><path d="M0.27 -1.01 C19.26 1.47, 36.71 1.52, 85.23 -0.43 M-0.36 -0.37 C28.22 -0.11, 56.1 -0.53, 84.65 0.9 M85.87 -0.44 C86.06 34.73, 85.99 71.89, 83.61 126.75 M84.73 -0.07 C84.95 45.9, 84.71 94.72, 84.09 127.41 M83.51 128.9 C52.78 129.28, 22.66 129.38, 1 128.93 M84.6 127.22 C60.84 127.05, 38.35 127.66, 0.52 128.63 M-0.1 128.66 C0.74 93.15, -1.28 54.24, 1.12 0.67 M0.41 126.81 C-1.47 93.84, -0.11 60.52, 0.23 0.72" stroke="#000000" stroke-width="2" fill="none"></path></g><g stroke-linecap="round" transform="translate(10 10) rotate(0 42.06698083317275 63.83430587357023)"><path d="M-1.21 -1.75 L82.37 1.46 L83.96 126.47 L0.13 126.58" stroke="none" stroke-width="0" fill="#5fdde5"></path><path d="M-1.01 0.14 C28.18 -1.65, 55.15 0.98, 83.7 0.67 M-0.37 0.15 C27.28 0.26, 54.25 0.82, 85.04 -0.15 M83.69 1.56 C82.32 43.46, 83.07 83.41, 83.22 129.01 M84.06 0.47 C83.3 42, 85.24 83.48, 83.87 128.38 M85.36 127.5 C65.83 128.31, 45.94 128.4, 1.26 127.22 M83.68 127.71 C51.15 128.96, 19.56 128.58, 0.96 127.5 M0.99 129.45 C0.95 78.65, -1.77 31.22, 0.67 -0.77 M-0.86 127.06 C-1.09 81.43, -1.02 33.9, 0.72 -0.59" stroke="#000000" stroke-width="2" fill="none"></path></g><g stroke-linecap="round"><g transform="translate(24.268333420350444 68.0274551776766) rotate(0 27.723718318306673 -1.7469740310166202)"><path d="M-0.61 0.08 C7.59 -0.07, 39.4 -0.22, 48.87 -0.74 C58.35 -1.25, 55.18 -2.6, 56.23 -3.02 M1.27 -0.92 C9.41 -0.96, 39.22 1, 48.32 0.32 C57.42 -0.37, 54.72 -4.64, 55.88 -5.02" stroke="#000000" stroke-width="1" fill="none"></path></g></g><mask></mask><g stroke-linecap="round"><g transform="translate(26.476777890343357 30.571987771135184) rotate(0 27.121138869927066 -1.6684867919419233)"><path d="M0.08 0.75 C3.24 0.43, 9.98 -2.32, 19.11 -2.55 C28.25 -2.79, 48.98 -1.06, 54.9 -0.65 M-1.33 0.11 C2.18 -0.5, 12.04 -4.33, 21.34 -4.26 C30.64 -4.19, 48.85 -0.37, 54.48 0.53" stroke="#000000" stroke-width="1" fill="none"></path></g></g><mask></mask><g stroke-linecap="round"><g transform="translate(26.38559579937808 110.79651472025986) rotate(0 28.76937089049477 0.20836612329248538)"><path d="M0.75 -0.92 C6.23 -0.88, 24.93 -0.33, 32.23 0.35 C39.52 1.03, 40.25 3.61, 44.52 3.16 C48.79 2.71, 55.75 -1.37, 57.85 -2.36 M-0.31 1.21 C5.13 0.9, 24.37 -1.39, 31.69 -1.42 C39.01 -1.45, 39.2 1, 43.62 1.03 C48.05 1.06, 55.68 -0.66, 58.26 -1.27" stroke="#000000" stroke-width="1" fill="none"></path></g></g><mask></mask><g stroke-linecap="round"><g transform="translate(22.595388060416752 124.1800689447509) rotate(0 32.38231573435076 -1.0026111830182316)"><path d="M-0.92 0.79 C1.19 0.39, 9.34 -1.4, 12.76 -1.65 C16.18 -1.89, 12.56 -1.02, 19.61 -0.69 C26.65 -0.37, 47.59 0.61, 55.05 0.3 C62.5 -0.02, 62.73 -2.04, 64.32 -2.56 M0.79 0.15 C2.8 -0.13, 9.11 -0.35, 12.16 -0.24 C15.2 -0.14, 11.86 0.55, 19.05 0.78 C26.24 1.02, 47.41 1.65, 55.28 1.17 C63.16 0.69, 64.5 -1.24, 66.28 -2.08" stroke="#000000" stroke-width="1" fill="none"></path></g></g><mask></mask><g stroke-linecap="round"><g transform="translate(22.93445770530903 48.49973987597302) rotate(0 27.93132972489125 0.7696813122160577)"><path d="M0.79 0.66 C4.23 0.76, 12.17 -0.56, 21.4 -0.3 C30.63 -0.04, 50.5 1.87, 56.17 2.22 M-0.26 -0.04 C2.93 -0.23, 11.01 -2.81, 20.32 -2.21 C29.62 -1.61, 49.71 2.72, 55.57 3.53" stroke="#000000" stroke-width="1" fill="none"></path></g></g><mask></mask><g stroke-linecap="round"><g transform="translate(23.062408884945825 89.54780641686285) rotate(0 27.93132972489125 0.7696813122160577)"><path d="M0.66 -0.26 C2.48 -0.05, 6.54 2.15, 10.04 2.01 C13.54 1.86, 14.07 -1.21, 21.64 -1.14 C29.2 -1.07, 49.74 1.86, 55.42 2.42 M-0.46 -1.44 C1.33 -1.68, 5.75 -0.18, 9.3 0.05 C12.86 0.28, 13.17 -0.64, 20.86 -0.05 C28.55 0.55, 49.89 3.18, 55.44 3.62" stroke="#000000" stroke-width="1" fill="none"></path></g></g><mask></mask><g transform="translate(25.010713071130695 187.10008428864242) rotate(0 37.140238815094094 19.865709133654974)"><text x="0" y="31.731418267309955" font-family="Helvetica, Segoe UI Emoji" font-size="34.54905936287822px" fill="#000000" text-anchor="start" style="white-space: pre;" direction="ltr">Data</text></g><g stroke-linecap="round"><g transform="translate(154.0651333683219 86.2427362589041) rotate(0 34.33331298828128 0)"><path d="M0 0 C11.44 0, 57.22 0, 68.67 0 M0 0 C11.44 0, 57.22 0, 68.67 0" stroke="#000000" stroke-width="4" fill="none"></path></g><g transform="translate(154.0651333683219 86.2427362589041) rotate(0 34.33331298828128 0)"><path d="M40.48 10.26 C51.6 6.21, 62.72 2.17, 68.67 0 M40.48 10.26 C50.61 6.57, 60.75 2.88, 68.67 0" stroke="#000000" stroke-width="4" fill="none"></path></g><g transform="translate(154.0651333683219 86.2427362589041) rotate(0 34.33331298828128 0)"><path d="M40.48 -10.26 C51.6 -6.21, 62.72 -2.17, 68.67 0 M40.48 -10.26 C50.61 -6.57, 60.75 -2.88, 68.67 0" stroke="#000000" stroke-width="4" fill="none"></path></g></g><mask></mask><g stroke-linecap="round" transform="translate(625.8386263476837 33.7427362589041) rotate(0 108 52.5)"><path d="M28.12 1.98 L188.62 0.65 L203.83 2.96 L211.39 11.51 L216.2 19.15 L215.22 80.22 L212.17 95.85 L204.3 103.02 L190.7 106.55 L27.27 105.77 L9.9 102.11 L2.94 94.45 L-1.16 84.47 L-1.02 21.99 L2.15 9.18 L11.22 4.74 L25.84 0.2" stroke="none" stroke-width="0" fill="#d3ebcd"></path><path d="M26.25 0 M26.25 0 C85.74 -1.81, 143.69 1.68, 189.75 0 M26.25 0 C71.49 0.95, 117.16 -0.87, 189.75 0 M189.75 0 C205.36 -1.4, 217.56 9.3, 216 26.25 M189.75 0 C207.85 0.88, 214.95 7.18, 216 26.25 M216 26.25 C214.2 42.68, 214.38 54.13, 216 78.75 M216 26.25 C216.51 42.26, 216.44 56.99, 216 78.75 M216 78.75 C215.37 96.75, 206.72 105.39, 189.75 105 M216 78.75 C216.77 95.89, 206.45 106.88, 189.75 105 M189.75 105 C152.43 105.55, 111.2 105.49, 26.25 105 M189.75 105 C129.79 105.07, 70.98 105.1, 26.25 105 M26.25 105 C9.72 104.92, -0.12 95.49, 0 78.75 M26.25 105 C8.82 104.13, -0.35 95.53, 0 78.75 M0 78.75 C-1.35 60.33, -0.65 43.28, 0 26.25 M0 78.75 C0.46 66.99, 0.82 56.57, 0 26.25 M0 26.25 C0.4 10.26, 10.73 -0.36, 26.25 0 M0 26.25 C1.66 8.7, 9.26 -1.73, 26.25 0" stroke="#000000" stroke-width="2" fill="none"></path></g><g transform="translate(677.8386263476837 54.2427362589041) rotate(0 56 32)"><text x="56" y="26" font-family="Helvetica, Segoe UI Emoji" font-size="28px" fill="#000000" text-anchor="middle" style="white-space: pre;" direction="ltr">Feature </text><text x="56" y="58" font-family="Helvetica, Segoe UI Emoji" font-size="28px" fill="#000000" text-anchor="middle" style="white-space: pre;" direction="ltr">selection</text></g><g stroke-linecap="round"><g transform="translate(513.2672272764319 86.2427362589041) rotate(0 34.33331298828128 0)"><path d="M0 0 C11.44 0, 57.22 0, 68.67 0 M0 0 C11.44 0, 57.22 0, 68.67 0" stroke="#000000" stroke-width="4" fill="none"></path></g><g transform="translate(513.2672272764319 86.2427362589041) rotate(0 34.33331298828128 0)"><path d="M40.48 10.26 C46.27 8.15, 52.07 6.04, 68.67 0 M40.48 10.26 C46.56 8.04, 52.65 5.83, 68.67 0" stroke="#000000" stroke-width="4" fill="none"></path></g><g transform="translate(513.2672272764319 86.2427362589041) rotate(0 34.33331298828128 0)"><path d="M40.48 -10.26 C46.27 -8.15, 52.07 -6.04, 68.67 0 M40.48 -10.26 C46.56 -8.04, 52.65 -5.83, 68.67 0" stroke="#000000" stroke-width="4" fill="none"></path></g></g><mask></mask><g stroke-linecap="round" transform="translate(257.3377566146845 33.2427362589041) rotate(0 108 53)"><path d="M25.1 1.56 L190.05 0.52 L206.42 2.81 L210.91 9.9 L215.14 21.27 L214.32 81.37 L210.77 94.4 L205.45 103.1 L190.95 106.59 L28.09 106.45 L10.94 101.64 L4.23 95.12 L0.8 86.38 L0.1 19.59 L5.36 9.09 L10.94 3.76 L27.94 0.52" stroke="none" stroke-width="0" fill="#fff89a"></path><path d="M26.5 0 M26.5 0 C68.61 -0.1, 105.47 -2.29, 189.5 0 M26.5 0 C62.6 -0.85, 98.4 -0.76, 189.5 0 M189.5 0 C206.41 -0.31, 215.38 9.7, 216 26.5 M189.5 0 C206.4 0.27, 214.25 8.38, 216 26.5 M216 26.5 C215.35 38.25, 216.65 52.35, 216 79.5 M216 26.5 C216.64 46.62, 215.7 65.49, 216 79.5 M216 79.5 C215.96 97.61, 205.67 107.43, 189.5 106 M216 79.5 C216.78 95.18, 207.97 104.71, 189.5 106 M189.5 106 C134.45 105.29, 77.57 104.05, 26.5 106 M189.5 106 C144.7 106.36, 99 105.98, 26.5 106 M26.5 106 C9.39 107.35, 1.23 97.33, 0 79.5 M26.5 106 C7.07 105.65, 1.93 96.67, 0 79.5 M0 79.5 C0.96 60.01, 0.22 41.21, 0 26.5 M0 79.5 C-0.45 62.17, -0.33 45.71, 0 26.5 M0 26.5 C1.09 9.51, 9.33 -0.09, 26.5 0 M0 26.5 C-1.58 10.88, 9.38 -0.82, 26.5 0" stroke="#000000" stroke-width="2" fill="none"></path></g><g transform="translate(276.8377566146845 54.2427362589041) rotate(0 88.5 32)"><text x="88.5" y="26" font-family="Helvetica, Segoe UI Emoji" font-size="28px" fill="#000000" text-anchor="middle" style="white-space: pre;" direction="ltr">Data </text><text x="88.5" y="58" font-family="Helvetica, Segoe UI Emoji" font-size="28px" fill="#000000" text-anchor="middle" style="white-space: pre;" direction="ltr">preprocessing</text></g><g stroke-linecap="round"><g transform="translate(879.4375018123558 86.2427362589041) rotate(0 34.33331298828125 0)"><path d="M0 0 C11.44 0, 57.22 0, 68.67 0 M0 0 C11.44 0, 57.22 0, 68.67 0" stroke="#000000" stroke-width="4" fill="none"></path></g><g transform="translate(879.4375018123558 86.2427362589041) rotate(0 34.33331298828125 0)"><path d="M40.48 10.26 C47.25 7.8, 54.02 5.33, 68.67 0 M40.48 10.26 C49.17 7.1, 57.86 3.93, 68.67 0" stroke="#000000" stroke-width="4" fill="none"></path></g><g transform="translate(879.4375018123558 86.2427362589041) rotate(0 34.33331298828125 0)"><path d="M40.48 -10.26 C47.25 -7.8, 54.02 -5.33, 68.67 0 M40.48 -10.26 C49.17 -7.1, 57.86 -3.93, 68.67 0" stroke="#000000" stroke-width="4" fill="none"></path></g></g><mask></mask><g stroke-linecap="round" transform="translate(981.1041888240743 33.2427362589041) rotate(0 108 53)"><path d="M26.08 0.02 L190.38 1.37 L204.94 4.66 L210.8 10.91 L216.93 21.52 L216.17 77.97 L211.97 97.33 L205.22 103.8 L190.46 107.35 L27.72 106.46 L10.82 103.89 L4 93.96 L-1.37 83.91 L-1.01 18.73 L2.63 11.45 L11.03 4.23 L26.41 -1.37" stroke="none" stroke-width="0" fill="#bffff0"></path><path d="M26.5 0 M26.5 0 C91.37 0.4, 152.03 0.39, 189.5 0 M26.5 0 C63.35 0.76, 99.16 0.47, 189.5 0 M189.5 0 C205.88 -1.45, 214.88 6.92, 216 26.5 M189.5 0 C204.93 -1.08, 217.69 6.86, 216 26.5 M216 26.5 C215.03 43.53, 216.21 61.59, 216 79.5 M216 26.5 C216.34 48.47, 215.46 69.05, 216 79.5 M216 79.5 C217.55 99.04, 205.54 105.64, 189.5 106 M216 79.5 C217.54 97.91, 205.48 107.05, 189.5 106 M189.5 106 C133.75 106.9, 76.73 107.65, 26.5 106 M189.5 106 C152.71 105.42, 115.51 105.34, 26.5 106 M26.5 106 C7.62 104.33, -0.23 97.72, 0 79.5 M26.5 106 C10.55 107.2, 0.58 96.51, 0 79.5 M0 79.5 C-0.78 60.07, -2.19 42.12, 0 26.5 M0 79.5 C1.13 66.01, -0.3 52.66, 0 26.5 M0 26.5 C-1.14 7.16, 7.67 1.47, 26.5 0 M0 26.5 C-0.62 8, 8.12 -0.77, 26.5 0" stroke="#000000" stroke-width="2" fill="none"></path></g><g transform="translate(1008.6041888240743 54.2427362589041) rotate(0 80.5 32)"><text x="80.5" y="26" font-family="Helvetica, Segoe UI Emoji" font-size="28px" fill="#000000" text-anchor="middle" style="white-space: pre;" direction="ltr">Model </text><text x="80.5" y="58" font-family="Helvetica, Segoe UI Emoji" font-size="28px" fill="#000000" text-anchor="middle" style="white-space: pre;" direction="ltr">development</text></g><g stroke-linecap="round"><g transform="translate(1228.0899530056925 86.2427362589041) rotate(0 34.33331298828125 0)"><path d="M0 0 C11.44 0, 57.22 0, 68.67 0 M0 0 C11.44 0, 57.22 0, 68.67 0" stroke="#000000" stroke-width="4" fill="none"></path></g><g transform="translate(1228.0899530056925 86.2427362589041) rotate(0 34.33331298828125 0)"><path d="M40.48 10.26 C46.39 8.11, 52.31 5.95, 68.67 0 M40.48 10.26 C48.38 7.39, 56.27 4.51, 68.67 0" stroke="#000000" stroke-width="4" fill="none"></path></g><g transform="translate(1228.0899530056925 86.2427362589041) rotate(0 34.33331298828125 0)"><path d="M40.48 -10.26 C46.39 -8.11, 52.31 -5.95, 68.67 0 M40.48 -10.26 C48.38 -7.39, 56.27 -4.51, 68.67 0" stroke="#000000" stroke-width="4" fill="none"></path></g></g><mask></mask><g stroke-linecap="round" transform="translate(1324.5438062623887 33.7427362589041) rotate(0 108 52.5)"><path d="M25.25 -1.56 L190.83 -0.31 L207.57 4.49 L213.62 9.18 L215.08 20.22 L215.6 76.77 L211.85 95.13 L204.95 101.11 L189.64 105.25 L25.9 104.76 L10.97 102.36 L4.49 92.86 L0.95 83.75 L-0.77 19.82 L3.87 10.6 L8.44 1.85 L25.03 -1.03" stroke="none" stroke-width="0" fill="#e7fbbe"></path><path d="M26.25 0 M26.25 0 C71.54 -1.02, 118.43 -0.51, 189.75 0 M26.25 0 C63.46 -0.35, 103.16 -0.55, 189.75 0 M189.75 0 C205.61 -1.07, 217.87 10.49, 216 26.25 M189.75 0 C206.9 -1.86, 217.02 9.39, 216 26.25 M216 26.25 C214.38 41.03, 215.53 52.69, 216 78.75 M216 26.25 C215.79 37.95, 216.93 49.42, 216 78.75 M216 78.75 C214.84 96.68, 205.77 103.76, 189.75 105 M216 78.75 C213.76 96.3, 209.49 104.37, 189.75 105 M189.75 105 C134.55 103.06, 81.28 104.5, 26.25 105 M189.75 105 C139.44 105.79, 88.36 105.75, 26.25 105 M26.25 105 C9.52 104.93, 1.74 97.7, 0 78.75 M26.25 105 C8.86 106.58, 0.21 96.2, 0 78.75 M0 78.75 C1.3 60.8, -0.83 41.13, 0 26.25 M0 78.75 C1.03 63.71, 0.69 51.08, 0 26.25 M0 26.25 C1.84 10.49, 10.48 1.07, 26.25 0 M0 26.25 C0.75 6.96, 7.79 0.96, 26.25 0" stroke="#000000" stroke-width="2" fill="none"></path></g><g transform="translate(1369.5438062623887 70.2427362589041) rotate(0 63 16)"><text x="63" y="26" font-family="Helvetica, Segoe UI Emoji" font-size="28px" fill="#000000" text-anchor="middle" style="white-space: pre;" direction="ltr">Prediction</text></g><g stroke-linecap="round"><g transform="translate(1570.4198830976857 86.2427362589041) rotate(0 34.33331298828125 0)"><path d="M0 0 C11.44 0, 57.22 0, 68.67 0 M0 0 C11.44 0, 57.22 0, 68.67 0" stroke="#000000" stroke-width="4" fill="none"></path></g><g transform="translate(1570.4198830976857 86.2427362589041) rotate(0 34.33331298828125 0)"><path d="M40.48 10.26 C51.67 6.19, 62.87 2.11, 68.67 0 M40.48 10.26 C50.57 6.59, 60.67 2.91, 68.67 0" stroke="#000000" stroke-width="4" fill="none"></path></g><g transform="translate(1570.4198830976857 86.2427362589041) rotate(0 34.33331298828125 0)"><path d="M40.48 -10.26 C51.67 -6.19, 62.87 -2.11, 68.67 0 M40.48 -10.26 C50.57 -6.59, 60.67 -2.91, 68.67 0" stroke="#000000" stroke-width="4" fill="none"></path></g></g><mask></mask><g stroke-linecap="round" transform="translate(1686.4583143847667 20.154278625369955) rotate(0 67.2119610607457 44.80797404049717)"><path d="M22.4 0 L112.02 0 L121.82 1.4 L125.67 3.15 L131.27 8.75 L134.07 17.15 L134.42 67.21 L134.07 72.46 L131.27 80.86 L125.67 86.47 L117.27 89.27 L112.02 89.62 L22.4 89.62 L17.15 89.27 L8.75 86.47 L3.15 80.86 L0.35 72.46 L0.35 17.15 L3.15 8.75 L5.6 5.6 L12.6 1.4 L22.4 0" stroke="none" stroke-width="0" fill="#ced4da"></path><path d="M22.4 0 M22.4 0 C55.94 0, 89.47 0, 112.02 0 M22.4 0 C45.35 0, 68.3 0, 112.02 0 M112.02 0 C126.96 0, 134.42 7.47, 134.42 22.4 M112.02 0 C126.96 0, 134.42 7.47, 134.42 22.4 M134.42 22.4 C134.42 38.54, 134.42 54.67, 134.42 67.21 M134.42 22.4 C134.42 37.49, 134.42 52.58, 134.42 67.21 M134.42 67.21 C134.42 82.15, 126.96 89.62, 112.02 89.62 M134.42 67.21 C134.42 82.15, 126.96 89.62, 112.02 89.62 M112.02 89.62 C92.48 89.62, 72.94 89.62, 22.4 89.62 M112.02 89.62 C89.76 89.62, 67.5 89.62, 22.4 89.62 M22.4 89.62 C7.47 89.62, 0 82.15, 0 67.21 M22.4 89.62 C7.47 89.62, 0 82.15, 0 67.21 M0 67.21 C0 57.21, 0 47.21, 0 22.4 M0 67.21 C0 49.48, 0 31.74, 0 22.4 M0 22.4 C0 7.47, 7.47 0, 22.4 0 M0 22.4 C0 7.47, 7.47 0, 22.4 0" stroke="#343a40" stroke-width="2" fill="none"></path></g><g stroke-linecap="round" transform="translate(1673.6373847496363 119.74496218624293) rotate(0 78.97535984002525 10.810315415364471)"><path d="M5.41 0 L152.55 0 L154.91 0.34 L157.61 3.04 L157.95 16.22 L156.6 20.27 L152.55 21.62 L5.41 21.62 L1.35 20.27 L0 16.22 L0.34 3.04 L1.35 1.35 L5.41 0" stroke="none" stroke-width="0" fill="#ced4da"></path><path d="M5.41 0 M5.41 0 C39.65 0, 73.89 0, 152.55 0 M5.41 0 C54.13 0, 102.85 0, 152.55 0 M152.55 0 C156.15 0, 157.95 1.8, 157.95 5.41 M152.55 0 C156.15 0, 157.95 1.8, 157.95 5.41 M157.95 5.41 C157.95 9.31, 157.95 13.21, 157.95 16.22 M157.95 5.41 C157.95 8.54, 157.95 11.67, 157.95 16.22 M157.95 16.22 C157.95 19.82, 156.15 21.62, 152.55 21.62 M157.95 16.22 C157.95 19.82, 156.15 21.62, 152.55 21.62 M152.55 21.62 C121.52 21.62, 90.5 21.62, 5.41 21.62 M152.55 21.62 C103.77 21.62, 54.99 21.62, 5.41 21.62 M5.41 21.62 C1.8 21.62, 0 19.82, 0 16.22 M5.41 21.62 C1.8 21.62, 0 19.82, 0 16.22 M0 16.22 C0 12.88, 0 9.54, 0 5.41 M0 16.22 C0 12.56, 0 8.9, 0 5.41 M0 5.41 C0 1.8, 1.8 0, 5.41 0 M0 5.41 C0 1.8, 1.8 0, 5.41 0" stroke="#343a40" stroke-width="2" fill="none"></path></g><g stroke-linecap="round" transform="translate(1790.0893505738345 127.66237629327114) rotate(0 14.151531838736446 2.727955181107447)"><path d="M1.36 0 L26.94 0 L28.3 1.36 L28.3 4.09 L26.94 5.46 L1.36 5.46 L0 4.09 L0.34 0.34 L1.36 0" stroke="none" stroke-width="0" fill="#343a40"></path><path d="M1.36 0 M1.36 0 C10.85 0, 20.34 0, 26.94 0 M1.36 0 C7.32 0, 13.27 0, 26.94 0 M26.94 0 C27.85 0, 28.3 0.45, 28.3 1.36 M26.94 0 C27.85 0, 28.3 0.45, 28.3 1.36 M28.3 1.36 C28.3 2.34, 28.3 3.32, 28.3 4.09 M28.3 1.36 C28.3 2.35, 28.3 3.33, 28.3 4.09 M28.3 4.09 C28.3 5, 27.85 5.46, 26.94 5.46 M28.3 4.09 C28.3 5, 27.85 5.46, 26.94 5.46 M26.94 5.46 C18.15 5.46, 9.36 5.46, 1.36 5.46 M26.94 5.46 C21.55 5.46, 16.15 5.46, 1.36 5.46 M1.36 5.46 C0.45 5.46, 0 5, 0 4.09 M1.36 5.46 C0.45 5.46, 0 5, 0 4.09 M0 4.09 C0 3.43, 0 2.77, 0 1.36 M0 4.09 C0 3.25, 0 2.41, 0 1.36 M0 1.36 C0 0.45, 0.45 0, 1.36 0 M0 1.36 C0 0.45, 0.45 0, 1.36 0" stroke="#343a40" stroke-width="2" fill="none"></path></g><g stroke-linecap="round" transform="translate(1739.9457278959928 111.16776357029534) rotate(0 14.151531838736446 2.727955181107447)"><path d="M1.36 0 L26.94 0 L28.3 1.36 L28.3 4.09 L26.94 5.46 L1.36 5.46 L0 4.09 L0.34 0.34 L1.36 0" stroke="none" stroke-width="0" fill="#343a40"></path><path d="M1.36 0 M1.36 0 C10.07 0, 18.78 0, 26.94 0 M1.36 0 C7.94 0, 14.52 0, 26.94 0 M26.94 0 C27.85 0, 28.3 0.45, 28.3 1.36 M26.94 0 C27.85 0, 28.3 0.45, 28.3 1.36 M28.3 1.36 C28.3 2.38, 28.3 3.39, 28.3 4.09 M28.3 1.36 C28.3 2.03, 28.3 2.7, 28.3 4.09 M28.3 4.09 C28.3 5, 27.85 5.46, 26.94 5.46 M28.3 4.09 C28.3 5, 27.85 5.46, 26.94 5.46 M26.94 5.46 C21.35 5.46, 15.75 5.46, 1.36 5.46 M26.94 5.46 C17.65 5.46, 8.36 5.46, 1.36 5.46 M1.36 5.46 C0.45 5.46, 0 5, 0 4.09 M1.36 5.46 C0.45 5.46, 0 5, 0 4.09 M0 4.09 C0 3.54, 0 2.99, 0 1.36 M0 4.09 C0 3.5, 0 2.91, 0 1.36 M0 1.36 C0 0.45, 0.45 0, 1.36 0 M0 1.36 C0 0.45, 0.45 0, 1.36 0" stroke="#343a40" stroke-width="2" fill="none"></path></g><g stroke-linecap="round" transform="translate(1698.0026760716316 30.52195127033754) rotate(0 55.7534016596685 34.97031776107231)"><path d="M17.49 0 L94.02 0 L101.67 1.09 L104.68 2.46 L109.05 6.83 L111.23 13.39 L111.51 52.46 L111.23 56.55 L109.05 63.11 L104.68 67.48 L101.67 68.85 L94.02 69.94 L17.49 69.94 L13.39 69.67 L6.83 67.48 L2.46 63.11 L0.27 56.55 L0.27 13.39 L2.46 6.83 L6.83 2.46 L9.84 1.09 L17.49 0" stroke="none" stroke-width="0" fill="#343a40"></path><path d="M17.49 0 M17.49 0 C35.51 0, 53.53 0, 94.02 0 M17.49 0 C38.66 0, 59.84 0, 94.02 0 M94.02 0 C105.68 0, 111.51 5.83, 111.51 17.49 M94.02 0 C105.68 0, 111.51 5.83, 111.51 17.49 M111.51 17.49 C111.51 25.55, 111.51 33.61, 111.51 52.46 M111.51 17.49 C111.51 28.98, 111.51 40.47, 111.51 52.46 M111.51 52.46 C111.51 64.11, 105.68 69.94, 94.02 69.94 M111.51 52.46 C111.51 64.11, 105.68 69.94, 94.02 69.94 M94.02 69.94 C64.21 69.94, 34.41 69.94, 17.49 69.94 M94.02 69.94 C72.45 69.94, 50.88 69.94, 17.49 69.94 M17.49 69.94 C5.83 69.94, 0 64.11, 0 52.46 M17.49 69.94 C5.83 69.94, 0 64.11, 0 52.46 M0 52.46 C0 43.08, 0 33.71, 0 17.49 M0 52.46 C0 43.14, 0 33.82, 0 17.49 M0 17.49 C0 5.83, 5.83 0, 17.49 0 M0 17.49 C0 5.83, 5.83 0, 17.49 0" stroke="#343a40" stroke-width="2" fill="none"></path></g><g transform="translate(1716.8739324736384 162.95381950471628) rotate(0 37.823602002813686 20.231228978249206)"><text x="0" y="32.462457956498405" font-family="Helvetica, Segoe UI Emoji" font-size="35.18474604912905px" fill="#000000" text-anchor="start" style="white-space: pre;" direction="ltr">User</text></g></svg>