<svg version="1.1" xmlns="http://www.w3.org/2000/svg" viewBox="0 0 1905.968976414756 204.77569111022325" width="1905.968976414756" height="204.77569111022325">
  <!-- svg-source:excalidraw -->
  
  <defs>
    <style class="style-fonts">
      @font-face {
        font-family: "Virgil";
        src: url("https://excalidraw.com/Virgil.woff2");
      }
      @font-face {
        font-family: "Cascadia";
        src: url("https://excalidraw.com/Cascadia.woff2");
      }
    </style>
  </defs>
  <g stroke-linecap="round" transform="translate(26.94252232142958 26.89155804547869) rotate(0 35.339290345615666 53.6254093970546)"><path d="M1.43 -1.19 L69.47 -1.75 L68.91 108.71 L-0.18 106.05" stroke="none" stroke-width="0" fill="#fff"></path><path d="M-0.51 0.27 C13.38 0, 30.03 -1.68, 71.99 1.1 M-0.02 -0.36 C19.32 -0.03, 39.25 -0.22, 70.13 0.51 M70.47 1.73 C70.08 43.42, 68.85 85.2, 69.75 106.72 M70.79 0.6 C71.33 27.73, 70.42 54.75, 71.64 107.2 M70.49 106.62 C52.56 106.64, 33.68 107.71, 1.78 108.25 M70.87 107.72 C44.58 107.88, 18.59 108.74, -0.17 107.77 M1.12 107.15 C1.17 66.57, 1.84 22.1, -1.06 1.12 M0.51 107.66 C-0.44 70.88, -0.03 36.48, -0.37 0.23" stroke="#000000" stroke-width="2" fill="none"></path></g><g stroke-linecap="round" transform="translate(19.395089285715358 19.871468759764355) rotate(0 35.339290345615666 53.6254093970546)"><path d="M-1.19 -1.21 L68.93 -1.77 L72.14 107.07 L-1.2 107.38" stroke="none" stroke-width="0" fill="#fff"></path><path d="M0.27 -1.01 C16.2 1.44, 30.59 1.49, 71.77 -0.43 M-0.36 -0.37 C23.73 -0.11, 47.12 -0.53, 71.19 0.9 M72.41 -0.44 C72.55 28.91, 72.48 60.24, 70.15 106.33 M71.27 -0.07 C71.44 38.4, 71.2 79.73, 70.63 106.99 M70.05 108.48 C44.31 108.88, 19.18 108.97, 1 108.51 M71.14 106.8 C51.11 106.6, 32.36 107.22, 0.52 108.21 M-0.1 108.24 C0.9 78.52, -1.11 45.4, 1.12 0.67 M0.41 106.39 C-1.34 78.76, 0.03 50.78, 0.23 0.72" stroke="#000000" stroke-width="2" fill="none"></path></g><g stroke-linecap="round" transform="translate(10 11.617562509764582) rotate(0 35.339290345615666 53.6254093970546)"><path d="M-1.21 -1.75 L68.91 1.46 L70.5 106.05 L0.13 106.16" stroke="none" stroke-width="0" fill="#fff"></path><path d="M-1.01 0.14 C23.87 -1.64, 46.54 1, 70.25 0.67 M-0.37 0.15 C22.9 0.21, 45.49 0.77, 71.58 -0.15 M70.24 1.56 C68.89 36.75, 69.64 69.99, 69.76 108.59 M70.61 0.47 C69.82 35.32, 71.76 70.12, 70.42 107.96 M71.91 107.08 C55.57 107.93, 38.87 108.03, 1.26 106.8 M70.23 107.3 C42.85 108.48, 16.41 108.1, 0.96 107.09 M0.99 109.03 C1.06 66.04, -1.66 26.4, 0.67 -0.77 M-0.86 106.65 C-0.98 68.53, -0.91 28.51, 0.72 -0.59" stroke="#000000" stroke-width="2" fill="none"></path></g><g stroke-linecap="round"><g transform="translate(21.986426586910966 60.36479955711724) rotate(0 23.28991792865041 -1.4675838694766412)"><path d="M-0.61 0.08 C6.31 -0.07, 33.18 -0.35, 41.18 -0.77 C49.17 -1.19, 46.51 -2.11, 47.37 -2.43 M1.27 -0.92 C8.12 -0.96, 33 0.87, 40.63 0.29 C48.25 -0.3, 46.04 -4.16, 47.01 -4.43" stroke="#000000" stroke-width="1" fill="none"></path></g></g><mask></mask><g stroke-linecap="round"><g transform="translate(23.841678824925282 28.899512258278776) rotate(0 22.78370784033821 -1.4016489420073697)"><path d="M0.08 0.75 C2.71 0.52, 8.22 -1.79, 15.91 -2.02 C23.6 -2.24, 41.21 -0.92, 46.22 -0.59 M-1.33 0.11 C1.65 -0.41, 10.28 -3.81, 18.14 -3.73 C25.99 -3.65, 41.09 -0.23, 45.8 0.6" stroke="#000000" stroke-width="1" fill="none"></path></g></g><mask></mask><g stroke-linecap="round"><g transform="translate(23.76507930855587 96.29388652863594) rotate(0 24.16834131719213 0.17504253415344806)"><path d="M0.75 -0.92 C5.39 -0.87, 21.1 -0.2, 27.2 0.4 C33.3 1.01, 33.79 3.12, 37.36 2.72 C40.94 2.32, 46.89 -1.13, 48.64 -1.99 M-0.31 1.21 C4.29 0.9, 20.53 -1.27, 26.66 -1.37 C32.79 -1.48, 32.73 0.51, 36.46 0.59 C40.19 0.67, 46.82 -0.42, 49.05 -0.89" stroke="#000000" stroke-width="1" fill="none"></path></g></g><mask></mask><g stroke-linecap="round"><g transform="translate(20.581032127025537 107.53703493691472) rotate(0 27.203474913921227 -0.8422655250909372)"><path d="M-0.92 0.79 C0.87 0.42, 7.91 -1.2, 10.82 -1.42 C13.73 -1.64, 10.63 -0.8, 16.53 -0.53 C22.44 -0.27, 40 0.44, 46.24 0.18 C52.48 -0.09, 52.63 -1.7, 53.97 -2.12 M0.79 0.15 C2.47 -0.1, 7.69 -0.15, 10.22 -0.02 C12.75 0.11, 9.94 0.77, 15.98 0.94 C22.02 1.12, 39.82 1.49, 46.48 1.05 C53.13 0.62, 54.4 -0.89, 55.92 -1.64" stroke="#000000" stroke-width="1" fill="none"></path></g></g><mask></mask><g stroke-linecap="round"><g transform="translate(20.865875022591354 43.960113811539884) rotate(0 23.464326446472256 0.6465876758274192)"><path d="M0.79 0.66 C3.65 0.78, 10.19 -0.39, 17.94 -0.19 C25.68 0.01, 42.48 1.59, 47.24 1.86 M-0.26 -0.04 C2.36 -0.21, 9.04 -2.63, 16.85 -2.1 C24.67 -1.56, 41.69 2.44, 46.63 3.17" stroke="#000000" stroke-width="1" fill="none"></path></g></g><mask></mask><g stroke-linecap="round"><g transform="translate(20.973363218741724 78.44344284737957) rotate(0 23.464326446472256 0.6465876758274192)"><path d="M0.66 -0.26 C2.23 -0.1, 5.58 1.86, 8.5 1.74 C11.42 1.61, 11.84 -1.08, 18.17 -1.03 C24.51 -0.97, 41.72 1.58, 46.49 2.06 M-0.46 -1.44 C1.07 -1.73, 4.79 -0.48, 7.76 -0.22 C10.74 0.03, 10.94 -0.52, 17.4 0.06 C23.85 0.64, 41.86 2.9, 46.5 3.26" stroke="#000000" stroke-width="1" fill="none"></path></g></g><mask></mask><g transform="translate(27.4199265063304 164.4423781219421) rotate(0 21.5 11.5)"><text x="0" y="18" font-family="Helvetica, Segoe UI Emoji" font-size="20px" fill="#000000" text-anchor="start" style="white-space: pre;" direction="ltr">Data</text></g><g stroke-linecap="round"><g transform="translate(130.0866135180492 66.77575214537939) rotate(0 34.33331298828128 0)"><path d="M0 0 C11.44 0, 57.22 0, 68.67 0 M0 0 C11.44 0, 57.22 0, 68.67 0" stroke="#000000" stroke-width="2" fill="none"></path></g><g transform="translate(130.0866135180492 66.77575214537939) rotate(0 34.33331298828128 0)"><path d="M40.48 10.26 C51.6 6.21, 62.72 2.17, 68.67 0 M40.48 10.26 C50.61 6.57, 60.75 2.88, 68.67 0" stroke="#000000" stroke-width="2" fill="none"></path></g><g transform="translate(130.0866135180492 66.77575214537939) rotate(0 34.33331298828128 0)"><path d="M40.48 -10.26 C51.6 -6.21, 62.72 -2.17, 68.67 0 M40.48 -10.26 C50.61 -6.57, 60.75 -2.88, 68.67 0" stroke="#000000" stroke-width="2" fill="none"></path></g></g><mask></mask><g stroke-linecap="round" transform="translate(231.75330052976767 24.609065133660636) rotate(0 108 52.5)"><path d="M26.25 0 M26.25 0 C91.25 -1, 154.23 0, 189.75 0 M26.25 0 C85.2 1.51, 144.86 1.33, 189.75 0 M189.75 0 C205.8 1.72, 216.95 10.3, 216 26.25 M189.75 0 C208.42 0.89, 215.59 9.67, 216 26.25 M216 26.25 C215.49 38.6, 217.82 52.29, 216 78.75 M216 26.25 C216.05 39.27, 216.83 52.67, 216 78.75 M216 78.75 C216.35 97.32, 205.73 105.6, 189.75 105 M216 78.75 C218.27 95.69, 208.46 104.94, 189.75 105 M189.75 105 C135.94 104.42, 84.38 107.87, 26.25 105 M189.75 105 C135.73 104.95, 82.4 105.41, 26.25 105 M26.25 105 C9.73 103.32, 1.87 94.75, 0 78.75 M26.25 105 C7.31 104.77, 0.95 97.92, 0 78.75 M0 78.75 C0.17 60.83, 0.09 43.65, 0 26.25 M0 78.75 C-0.53 62.8, -0.81 45.52, 0 26.25 M0 26.25 C0.04 10.19, 9.27 -1.04, 26.25 0 M0 26.25 C0.53 10.15, 10.65 1.02, 26.25 0" stroke="#000000" stroke-width="2" fill="none"></path></g><g transform="translate(269.25330052976767 65.60906513366064) rotate(0 70.5 11.5)"><text x="70.5" y="18" font-family="Helvetica, Segoe UI Emoji" font-size="20px" fill="#000000" text-anchor="middle" style="white-space: pre;" direction="ltr">Data imputation</text></g><g stroke-linecap="round"><g transform="translate(496.5865219653148 67.10900409850439) rotate(0 34.33331298828128 0)"><path d="M0 0 C11.44 0, 57.22 0, 68.67 0 M0 0 C11.44 0, 57.22 0, 68.67 0" stroke="#000000" stroke-width="2" fill="none"></path></g><g transform="translate(496.5865219653148 67.10900409850439) rotate(0 34.33331298828128 0)"><path d="M40.48 10.26 C46.27 8.15, 52.07 6.04, 68.67 0 M40.48 10.26 C46.56 8.04, 52.65 5.83, 68.67 0" stroke="#000000" stroke-width="2" fill="none"></path></g><g transform="translate(496.5865219653148 67.10900409850439) rotate(0 34.33331298828128 0)"><path d="M40.48 -10.26 C46.27 -8.15, 52.07 -6.04, 68.67 0 M40.48 -10.26 C46.56 -8.04, 52.65 -5.83, 68.67 0" stroke="#000000" stroke-width="2" fill="none"></path></g></g><mask></mask><g stroke-linecap="round" transform="translate(598.2532089770333 24.942317086785636) rotate(0 108 52.5)"><path d="M26.25 0 M26.25 0 C64.39 0.32, 100.58 -1.82, 189.75 0 M26.25 0 C70.77 0.13, 116.23 -1.43, 189.75 0 M189.75 0 C207.05 0.82, 217.45 9.34, 216 26.25 M189.75 0 C209.07 0.52, 216.68 8.03, 216 26.25 M216 26.25 C216.53 43.01, 215.16 62.03, 216 78.75 M216 26.25 C216.87 38.96, 215.64 51.37, 216 78.75 M216 78.75 C217.22 97.9, 208.14 103.05, 189.75 105 M216 78.75 C214.5 94.45, 205.81 106.12, 189.75 105 M189.75 105 C141.41 103.62, 92.63 103.75, 26.25 105 M189.75 105 C132.84 105, 77.05 105.48, 26.25 105 M26.25 105 C6.93 104.19, -1.95 96.74, 0 78.75 M26.25 105 C6.95 106.4, -0.5 96.71, 0 78.75 M0 78.75 C0.92 59, -0.08 37.84, 0 26.25 M0 78.75 C0.17 58.68, 0.26 39.64, 0 26.25 M0 26.25 C-0.93 9.72, 8.79 0.11, 26.25 0 M0 26.25 C-1.37 8.27, 8.77 1.01, 26.25 0" stroke="#000000" stroke-width="2" fill="none"></path></g><g transform="translate(641.2532089770333 65.94231708678564) rotate(0 65 11.5)"><text x="65" y="18" font-family="Helvetica, Segoe UI Emoji" font-size="20px" fill="#000000" text-anchor="middle" style="white-space: pre;" direction="ltr">Data encoding</text></g><g stroke-linecap="round"><g transform="translate(858.5866440356274 67.77575214537939) rotate(0 34.33331298828131 0)"><path d="M0 0 C11.44 0, 57.22 0, 68.67 0 M0 0 C11.44 0, 57.22 0, 68.67 0" stroke="#000000" stroke-width="2" fill="none"></path></g><g transform="translate(858.5866440356274 67.77575214537939) rotate(0 34.33331298828131 0)"><path d="M40.48 10.26 C47.25 7.8, 54.02 5.33, 68.67 0 M40.48 10.26 C49.17 7.1, 57.86 3.93, 68.67 0" stroke="#000000" stroke-width="2" fill="none"></path></g><g transform="translate(858.5866440356274 67.77575214537939) rotate(0 34.33331298828131 0)"><path d="M40.48 -10.26 C47.25 -7.8, 54.02 -5.33, 68.67 0 M40.48 -10.26 C49.17 -7.1, 57.86 -3.93, 68.67 0" stroke="#000000" stroke-width="2" fill="none"></path></g></g><mask></mask><g stroke-linecap="round" transform="translate(960.2533310473459 25.609065133660636) rotate(0 108 52.5)"><path d="M26.25 0 M26.25 0 C73.24 -1.43, 118.43 -2.19, 189.75 0 M26.25 0 C79.92 -1.77, 133.28 -0.17, 189.75 0 M189.75 0 C206.82 1.53, 216.96 10.1, 216 26.25 M189.75 0 C208.65 0.53, 216.54 10.61, 216 26.25 M216 26.25 C213.76 41.29, 214 58.09, 216 78.75 M216 26.25 C216.13 44.19, 217.07 63.73, 216 78.75 M216 78.75 C215.29 97.69, 207.07 103.66, 189.75 105 M216 78.75 C215.78 94.49, 206.53 104.62, 189.75 105 M189.75 105 C133.68 103.5, 75.37 103.66, 26.25 105 M189.75 105 C157.04 103.38, 123.08 104.59, 26.25 105 M26.25 105 C7.6 103.84, 0.01 96.27, 0 78.75 M26.25 105 C9.97 107.2, -0.33 96.02, 0 78.75 M0 78.75 C0.67 62.38, 1.35 41.29, 0 26.25 M0 78.75 C-1.08 64.39, 0.13 49.99, 0 26.25 M0 26.25 C1.2 9.82, 8.68 0.88, 26.25 0 M0 26.25 C0.78 7.04, 9.17 -2.18, 26.25 0" stroke="#000000" stroke-width="2" fill="none"></path></g><g transform="translate(1013.7533310473459 66.60906513366064) rotate(0 54.5 11.5)"><text x="54.5" y="18" font-family="Helvetica, Segoe UI Emoji" font-size="20px" fill="#000000" text-anchor="middle" style="white-space: pre;" direction="ltr">Model fitting</text></g><g stroke-linecap="round"><g transform="translate(1223.9198959887526 70.44237812194189) rotate(0 34.33331298828125 0)"><path d="M0 0 C11.44 0, 57.22 0, 68.67 0 M0 0 C11.44 0, 57.22 0, 68.67 0" stroke="#000000" stroke-width="2" fill="none"></path></g><g transform="translate(1223.9198959887526 70.44237812194189) rotate(0 34.33331298828125 0)"><path d="M40.48 10.26 C46.39 8.11, 52.31 5.95, 68.67 0 M40.48 10.26 C48.38 7.39, 56.27 4.51, 68.67 0" stroke="#000000" stroke-width="2" fill="none"></path></g><g transform="translate(1223.9198959887526 70.44237812194189) rotate(0 34.33331298828125 0)"><path d="M40.48 -10.26 C46.39 -8.11, 52.31 -5.95, 68.67 0 M40.48 -10.26 C48.38 -7.39, 56.27 -4.51, 68.67 0" stroke="#000000" stroke-width="2" fill="none"></path></g></g><mask></mask><g stroke-linecap="round" transform="translate(1325.586583000471 28.275691110223136) rotate(0 108 52.5)"><path d="M26.25 0 M26.25 0 C66.81 0.94, 108.78 0.42, 189.75 0 M26.25 0 C66.29 -1.09, 106.5 0.09, 189.75 0 M189.75 0 C206.46 -0.2, 215.89 9, 216 26.25 M189.75 0 C206.85 -0.27, 216.82 9.96, 216 26.25 M216 26.25 C214.35 42.93, 215.22 62.14, 216 78.75 M216 26.25 C214.91 42.41, 215.37 59.43, 216 78.75 M216 78.75 C217.78 95.06, 207.68 104.22, 189.75 105 M216 78.75 C217.08 94.7, 209.37 105.48, 189.75 105 M189.75 105 C153.9 104.69, 117.81 108.21, 26.25 105 M189.75 105 C126.95 103.95, 62.95 103.6, 26.25 105 M26.25 105 C10.1 103.42, 0.69 95.82, 0 78.75 M26.25 105 C6.75 103.17, 1.51 96.76, 0 78.75 M0 78.75 C0.01 64.77, 0.36 51.62, 0 26.25 M0 78.75 C1.48 65.99, 0.88 54.23, 0 26.25 M0 26.25 C-1.67 8.57, 8.18 1.56, 26.25 0 M0 26.25 C1 9, 7.6 1.34, 26.25 0" stroke="#000000" stroke-width="2" fill="none"></path></g><g transform="translate(1388.586583000471 69.27569111022314) rotate(0 45 11.5)"><text x="45" y="18" font-family="Helvetica, Segoe UI Emoji" font-size="20px" fill="#000000" text-anchor="middle" style="white-space: pre;" direction="ltr">Prediction</text></g><g stroke-linecap="round"><g transform="translate(1595.2532700121906 69.10906513366064) rotate(0 34.33331298828125 0)"><path d="M0 0 C11.44 0, 57.22 0, 68.67 0 M0 0 C11.44 0, 57.22 0, 68.67 0" stroke="#000000" stroke-width="2" fill="none"></path></g><g transform="translate(1595.2532700121906 69.10906513366064) rotate(0 34.33331298828125 0)"><path d="M40.48 10.26 C51.67 6.19, 62.87 2.11, 68.67 0 M40.48 10.26 C50.57 6.59, 60.67 2.91, 68.67 0" stroke="#000000" stroke-width="2" fill="none"></path></g><g transform="translate(1595.2532700121906 69.10906513366064) rotate(0 34.33331298828125 0)"><path d="M40.48 -10.26 C51.67 -6.19, 62.87 -2.11, 68.67 0 M40.48 -10.26 C50.57 -6.59, 60.67 -2.91, 68.67 0" stroke="#000000" stroke-width="2" fill="none"></path></g></g><mask></mask><g stroke-linecap="round" transform="translate(1743.7647104417156 10) rotate(0 70.48826567373271 46.992177115821875)"><path d="M23.5 0 L117.48 0 L127.76 1.47 L131.8 3.3 L135.1 5.87 L137.67 9.18 L140.61 17.99 L140.98 70.49 L140.61 76 L137.67 84.81 L135.1 88.11 L131.8 90.68 L127.76 92.52 L117.48 93.98 L23.5 93.98 L13.22 92.52 L9.18 90.68 L5.87 88.11 L3.3 84.81 L0.37 76 L0.37 17.99 L3.3 9.18 L5.87 5.87 L9.18 3.3 L13.22 1.47 L23.5 0" stroke="none" stroke-width="0" fill="#ced4da"></path><path d="M23.5 0 M23.5 0 C45.91 0, 68.31 0, 117.48 0 M23.5 0 C50.58 0, 77.66 0, 117.48 0 M117.48 0 C133.14 0, 140.98 7.83, 140.98 23.5 M117.48 0 C133.14 0, 140.98 7.83, 140.98 23.5 M140.98 23.5 C140.98 42.22, 140.98 60.95, 140.98 70.49 M140.98 23.5 C140.98 39.16, 140.98 54.83, 140.98 70.49 M140.98 70.49 C140.98 86.15, 133.14 93.98, 117.48 93.98 M140.98 70.49 C140.98 86.15, 133.14 93.98, 117.48 93.98 M117.48 93.98 C95.24 93.98, 73.01 93.98, 23.5 93.98 M117.48 93.98 C83.17 93.98, 48.85 93.98, 23.5 93.98 M23.5 93.98 C7.83 93.98, 0 86.15, 0 70.49 M23.5 93.98 C7.83 93.98, 0 86.15, 0 70.49 M0 70.49 C0 60.4, 0 50.32, 0 23.5 M0 70.49 C0 60.45, 0 50.41, 0 23.5 M0 23.5 C0 7.83, 7.83 0, 23.5 0 M0 23.5 C0 7.83, 7.83 0, 23.5 0" stroke="#343a40" stroke-width="2" fill="none"></path></g><g stroke-linecap="round" transform="translate(1730.3188136096246 114.445316736449) rotate(0 82.82508140256573 11.337273499970763)"><path d="M5.67 0 L159.98 0 L162.46 0.35 L164.23 1.42 L165.3 3.19 L165.65 17.01 L164.23 21.26 L159.98 22.67 L5.67 22.67 L1.42 21.26 L0 17.01 L0.35 3.19 L1.42 1.42 L3.19 0.35 L5.67 0" stroke="none" stroke-width="0" fill="#ced4da"></path><path d="M5.67 0 M5.67 0 C55.47 0, 105.27 0, 159.98 0 M5.67 0 C65.17 0, 124.68 0, 159.98 0 M159.98 0 C163.76 0, 165.65 1.89, 165.65 5.67 M159.98 0 C163.76 0, 165.65 1.89, 165.65 5.67 M165.65 5.67 C165.65 8.34, 165.65 11.01, 165.65 17.01 M165.65 5.67 C165.65 8.08, 165.65 10.48, 165.65 17.01 M165.65 17.01 C165.65 20.79, 163.76 22.67, 159.98 22.67 M165.65 17.01 C165.65 20.79, 163.76 22.67, 159.98 22.67 M159.98 22.67 C113.58 22.67, 67.18 22.67, 5.67 22.67 M159.98 22.67 C111.68 22.67, 63.38 22.67, 5.67 22.67 M5.67 22.67 C1.89 22.67, 0 20.79, 0 17.01 M5.67 22.67 C1.89 22.67, 0 20.79, 0 17.01 M0 17.01 C0 13.37, 0 9.73, 0 5.67 M0 17.01 C0 12.6, 0 8.2, 0 5.67 M0 5.67 C0 1.89, 1.89 0, 5.67 0 M0 5.67 C0 1.89, 1.89 0, 5.67 0" stroke="#343a40" stroke-width="2" fill="none"></path></g><g stroke-linecap="round" transform="translate(1852.4473302560255 122.74867197586497) rotate(0 14.841360379852517 2.8609316930679825)"><path d="M1.43 0 L28.25 0 L29.33 0.36 L29.68 4.29 L29.33 5.36 L28.25 5.72 L1.43 5.72 L0.36 5.36 L0 4.29 L0 1.43 L0.36 0.36 L1.43 0" stroke="none" stroke-width="0" fill="#343a40"></path><path d="M1.43 0 M1.43 0 C9.04 0, 16.65 0, 28.25 0 M1.43 0 C10.69 0, 19.95 0, 28.25 0 M28.25 0 C29.21 0, 29.68 0.48, 29.68 1.43 M28.25 0 C29.21 0, 29.68 0.48, 29.68 1.43 M29.68 1.43 C29.68 2.1, 29.68 2.78, 29.68 4.29 M29.68 1.43 C29.68 2.22, 29.68 3.01, 29.68 4.29 M29.68 4.29 C29.68 5.25, 29.21 5.72, 28.25 5.72 M29.68 4.29 C29.68 5.25, 29.21 5.72, 28.25 5.72 M28.25 5.72 C22.07 5.72, 15.89 5.72, 1.43 5.72 M28.25 5.72 C19.44 5.72, 10.63 5.72, 1.43 5.72 M1.43 5.72 C0.48 5.72, 0 5.25, 0 4.29 M1.43 5.72 C0.48 5.72, 0 5.25, 0 4.29 M0 4.29 C0 3.18, 0 2.06, 0 1.43 M0 4.29 C0 3.49, 0 2.68, 0 1.43 M0 1.43 C0 0.48, 0.48 0, 1.43 0 M0 1.43 C0 0.48, 0.48 0, 1.43 0" stroke="#343a40" stroke-width="2" fill="none"></path></g><g stroke-linecap="round" transform="translate(1799.859413739728 105.45001522708134) rotate(0 14.841360379852517 2.8609316930679825)"><path d="M1.43 0 L28.25 0 L29.33 0.36 L29.68 4.29 L29.33 5.36 L28.25 5.72 L1.43 5.72 L0.36 5.36 L0 4.29 L0 1.43 L0.36 0.36 L1.43 0" stroke="none" stroke-width="0" fill="#343a40"></path><path d="M1.43 0 M1.43 0 C7.67 0, 13.91 0, 28.25 0 M1.43 0 C10.31 0, 19.19 0, 28.25 0 M28.25 0 C29.21 0, 29.68 0.48, 29.68 1.43 M28.25 0 C29.21 0, 29.68 0.48, 29.68 1.43 M29.68 1.43 C29.68 2.46, 29.68 3.5, 29.68 4.29 M29.68 1.43 C29.68 2.26, 29.68 3.09, 29.68 4.29 M29.68 4.29 C29.68 5.25, 29.21 5.72, 28.25 5.72 M29.68 4.29 C29.68 5.25, 29.21 5.72, 28.25 5.72 M28.25 5.72 C22.6 5.72, 16.94 5.72, 1.43 5.72 M28.25 5.72 C19.36 5.72, 10.47 5.72, 1.43 5.72 M1.43 5.72 C0.48 5.72, 0 5.25, 0 4.29 M1.43 5.72 C0.48 5.72, 0 5.25, 0 4.29 M0 4.29 C0 3.41, 0 2.52, 0 1.43 M0 4.29 C0 3.32, 0 2.36, 0 1.43 M0 1.43 C0 0.48, 0.48 0, 1.43 0 M0 1.43 C0 0.48, 0.48 0, 1.43 0" stroke="#343a40" stroke-width="2" fill="none"></path></g><g stroke-linecap="round" transform="translate(1755.8718119274458 20.87305372858077) rotate(0 58.471148979705845 36.674975854513036)"><path d="M18.34 0 L98.6 0 L106.63 1.15 L109.78 2.58 L114.36 7.16 L116.66 14.04 L116.94 55.01 L116.66 59.31 L114.36 66.19 L112.36 68.77 L106.63 72.2 L98.6 73.35 L18.34 73.35 L14.04 73.06 L7.16 70.77 L2.58 66.19 L0.29 59.31 L0.29 14.04 L2.58 7.16 L7.16 2.58 L14.04 0.29 L18.34 0" stroke="none" stroke-width="0" fill="#343a40"></path><path d="M18.34 0 M18.34 0 C37.24 0, 56.14 0, 98.6 0 M18.34 0 C40.55 0, 62.76 0, 98.6 0 M98.6 0 C110.83 0, 116.94 6.11, 116.94 18.34 M98.6 0 C110.83 0, 116.94 6.11, 116.94 18.34 M116.94 18.34 C116.94 26.79, 116.94 35.25, 116.94 55.01 M116.94 18.34 C116.94 30.39, 116.94 42.44, 116.94 55.01 M116.94 55.01 C116.94 67.24, 110.83 73.35, 98.6 73.35 M116.94 55.01 C116.94 67.24, 110.83 73.35, 98.6 73.35 M98.6 73.35 C67.35 73.35, 36.09 73.35, 18.34 73.35 M98.6 73.35 C75.98 73.35, 53.36 73.35, 18.34 73.35 M18.34 73.35 C6.11 73.35, 0 67.24, 0 55.01 M18.34 73.35 C6.11 73.35, 0 67.24, 0 55.01 M0 55.01 C0 45.18, 0 35.35, 0 18.34 M0 55.01 C0 45.24, 0 35.47, 0 18.34 M0 18.34 C0 6.11, 6.11 0, 18.34 0 M0 18.34 C0 6.11, 6.11 0, 18.34 0" stroke="#343a40" stroke-width="2" fill="none"></path></g><g transform="translate(1796.7533005297682 171.77569111022325) rotate(0 21.5 11.5)"><text x="0" y="18" font-family="Helvetica, Segoe UI Emoji" font-size="20px" fill="#000000" text-anchor="start" style="white-space: pre;" direction="ltr">User</text></g></svg>