<svg version="1.1" xmlns="http://www.w3.org/2000/svg" viewBox="0 0 1867.6521777561236 227.566712959681" width="1867.6521777561236" height="227.566712959681">
  <!-- svg-source:excalidraw -->
  
  <defs>
    <style class="style-fonts">
      @font-face {
        font-family: "Virgil";
        src: url("https://excalidraw.com/Virgil.woff2");
      }
      @font-face {
        font-family: "Cascadia";
        src: url("https://excalidraw.com/Cascadia.woff2");
      }
    </style>
  </defs>
  <g stroke-linecap="round" transform="translate(26.94252232142958 25.273995535714107) rotate(0 35.339290345615666 53.625409397054604)"><path d="M1.43 -1.19 L69.47 -1.75 L68.91 108.71 L-0.18 106.05" stroke="none" stroke-width="0" fill="#5fdde5"></path><path d="M-0.51 0.27 C13.38 0, 30.03 -1.68, 71.99 1.1 M-0.02 -0.36 C19.32 -0.03, 39.25 -0.22, 70.13 0.51 M70.47 1.73 C70.08 43.42, 68.85 85.2, 69.75 106.72 M70.79 0.6 C71.33 27.73, 70.42 54.75, 71.64 107.2 M70.49 106.62 C52.56 106.64, 33.68 107.71, 1.78 108.25 M70.87 107.72 C44.58 107.88, 18.59 108.74, -0.17 107.77 M1.12 107.15 C1.17 66.57, 1.84 22.1, -1.06 1.12 M0.51 107.66 C-0.44 70.88, -0.03 36.48, -0.37 0.23" stroke="#000000" stroke-width="2" fill="none"></path></g><g stroke-linecap="round" transform="translate(19.395089285715358 18.253906249999773) rotate(0 35.339290345615666 53.625409397054604)"><path d="M-1.19 -1.21 L68.93 -1.77 L72.14 107.07 L-1.2 107.38" stroke="none" stroke-width="0" fill="#5fdde5"></path><path d="M0.27 -1.01 C16.2 1.44, 30.59 1.49, 71.77 -0.43 M-0.36 -0.37 C23.73 -0.11, 47.12 -0.53, 71.19 0.9 M72.41 -0.44 C72.55 28.91, 72.48 60.24, 70.15 106.33 M71.27 -0.07 C71.44 38.4, 71.2 79.73, 70.63 106.99 M70.05 108.48 C44.31 108.88, 19.18 108.97, 1 108.51 M71.14 106.8 C51.11 106.6, 32.36 107.22, 0.52 108.21 M-0.1 108.24 C0.9 78.52, -1.11 45.4, 1.12 0.67 M0.41 106.39 C-1.34 78.76, 0.03 50.78, 0.23 0.72" stroke="#000000" stroke-width="2" fill="none"></path></g><g stroke-linecap="round" transform="translate(10 10) rotate(0 35.339290345615666 53.625409397054604)"><path d="M-1.21 -1.75 L68.91 1.46 L70.5 106.05 L0.13 106.16" stroke="none" stroke-width="0" fill="#5fdde5"></path><path d="M-1.01 0.14 C23.87 -1.64, 46.54 1, 70.25 0.67 M-0.37 0.15 C22.9 0.21, 45.49 0.77, 71.58 -0.15 M70.24 1.56 C68.89 36.75, 69.64 69.99, 69.76 108.59 M70.61 0.47 C69.82 35.32, 71.76 70.12, 70.42 107.96 M71.91 107.08 C55.57 107.93, 38.87 108.03, 1.26 106.8 M70.23 107.3 C42.85 108.48, 16.41 108.1, 0.96 107.09 M0.99 109.03 C1.06 66.04, -1.66 26.4, 0.67 -0.77 M-0.86 106.65 C-0.98 68.53, -0.91 28.51, 0.72 -0.59" stroke="#000000" stroke-width="2" fill="none"></path></g><g stroke-linecap="round"><g transform="translate(21.986426586910966 58.747237047352655) rotate(0 23.28991792865041 -1.467583869476627)"><path d="M-0.61 0.08 C6.31 -0.07, 33.18 -0.35, 41.18 -0.77 C49.17 -1.19, 46.51 -2.11, 47.37 -2.43 M1.27 -0.92 C8.12 -0.96, 33 0.87, 40.63 0.29 C48.25 -0.3, 46.04 -4.16, 47.01 -4.43" stroke="#000000" stroke-width="1" fill="none"></path></g></g><mask></mask><g stroke-linecap="round"><g transform="translate(23.841678824925282 27.281949748514194) rotate(0 22.783707840338213 -1.401648942007359)"><path d="M0.08 0.75 C2.71 0.52, 8.22 -1.79, 15.91 -2.02 C23.6 -2.24, 41.21 -0.92, 46.22 -0.59 M-1.33 0.11 C1.65 -0.41, 10.28 -3.81, 18.14 -3.73 C25.99 -3.65, 41.09 -0.23, 45.8 0.6" stroke="#000000" stroke-width="1" fill="none"></path></g></g><mask></mask><g stroke-linecap="round"><g transform="translate(23.76507930855587 94.67632401887136) rotate(0 24.168341317192127 0.17504253415346227)"><path d="M0.75 -0.92 C5.39 -0.87, 21.1 -0.2, 27.2 0.4 C33.3 1.01, 33.79 3.12, 37.36 2.72 C40.94 2.32, 46.89 -1.13, 48.64 -1.99 M-0.31 1.21 C4.29 0.9, 20.53 -1.27, 26.66 -1.37 C32.79 -1.48, 32.73 0.51, 36.46 0.59 C40.19 0.67, 46.82 -0.42, 49.05 -0.89" stroke="#000000" stroke-width="1" fill="none"></path></g></g><mask></mask><g stroke-linecap="round"><g transform="translate(20.581032127025537 105.91947242715014) rotate(0 27.20347491392123 -0.8422655250909372)"><path d="M-0.92 0.79 C0.87 0.42, 7.91 -1.2, 10.82 -1.42 C13.73 -1.64, 10.63 -0.8, 16.53 -0.53 C22.44 -0.27, 40 0.44, 46.24 0.18 C52.48 -0.09, 52.63 -1.7, 53.97 -2.12 M0.79 0.15 C2.47 -0.1, 7.69 -0.15, 10.22 -0.02 C12.75 0.11, 9.94 0.77, 15.98 0.94 C22.02 1.12, 39.82 1.49, 46.48 1.05 C53.13 0.62, 54.4 -0.89, 55.92 -1.64" stroke="#000000" stroke-width="1" fill="none"></path></g></g><mask></mask><g stroke-linecap="round"><g transform="translate(20.865875022591354 42.3425513017753) rotate(0 23.464326446472263 0.6465876758274156)"><path d="M0.79 0.66 C3.65 0.78, 10.19 -0.39, 17.94 -0.19 C25.68 0.01, 42.48 1.59, 47.24 1.86 M-0.26 -0.04 C2.36 -0.21, 9.04 -2.63, 16.85 -2.1 C24.67 -1.56, 41.69 2.44, 46.63 3.17" stroke="#000000" stroke-width="1" fill="none"></path></g></g><mask></mask><g stroke-linecap="round"><g transform="translate(20.973363218741724 76.82588033761499) rotate(0 23.464326446472263 0.6465876758274192)"><path d="M0.66 -0.26 C2.23 -0.1, 5.58 1.86, 8.5 1.74 C11.42 1.61, 11.84 -1.08, 18.17 -1.03 C24.51 -0.97, 41.72 1.58, 46.49 2.06 M-0.46 -1.44 C1.07 -1.73, 4.79 -0.48, 7.76 -0.22 C10.74 0.03, 10.94 -0.52, 17.4 0.06 C23.85 0.64, 41.86 2.9, 46.5 3.26" stroke="#000000" stroke-width="1" fill="none"></path></g></g><mask></mask><g transform="translate(31.44849485938093 177.32775020204724) rotate(0 28.278545514830412 15.125733647467428)"><text x="0" y="24.25146729493486" font-family="Helvetica, Segoe UI Emoji" font-size="26.305623734725962px" fill="#000000" text-anchor="start" style="white-space: pre;" direction="ltr">Data</text></g><g stroke-linecap="round"><g transform="translate(130.0866135180492 65.1581896356148) rotate(0 34.33331298828128 0)"><path d="M0 0 C11.44 0, 57.22 0, 68.67 0 M0 0 C11.44 0, 57.22 0, 68.67 0" stroke="#000000" stroke-width="4" fill="none"></path></g><g transform="translate(130.0866135180492 65.1581896356148) rotate(0 34.33331298828128 0)"><path d="M40.48 10.26 C51.6 6.21, 62.72 2.17, 68.67 0 M40.48 10.26 C50.61 6.57, 60.75 2.88, 68.67 0" stroke="#000000" stroke-width="4" fill="none"></path></g><g transform="translate(130.0866135180492 65.1581896356148) rotate(0 34.33331298828128 0)"><path d="M40.48 -10.26 C51.6 -6.21, 62.72 -2.17, 68.67 0 M40.48 -10.26 C50.61 -6.57, 60.75 -2.88, 68.67 0" stroke="#000000" stroke-width="4" fill="none"></path></g></g><mask></mask><g stroke-linecap="round" transform="translate(609.1579210365666 19.86384055035171) rotate(0 108 52.5)"><path d="M28.12 1.98 L188.62 0.65 L203.83 2.96 L211.39 11.51 L216.2 19.15 L215.22 80.22 L212.17 95.85 L204.3 103.02 L190.7 106.55 L27.27 105.77 L9.9 102.11 L2.94 94.45 L-1.16 84.47 L-1.02 21.99 L2.15 9.18 L11.22 4.74 L25.84 0.2" stroke="none" stroke-width="0" fill="#d3ebcd"></path><path d="M26.25 0 M26.25 0 C85.74 -1.81, 143.69 1.68, 189.75 0 M26.25 0 C71.49 0.95, 117.16 -0.87, 189.75 0 M189.75 0 C205.36 -1.4, 217.56 9.3, 216 26.25 M189.75 0 C207.85 0.88, 214.95 7.18, 216 26.25 M216 26.25 C214.2 42.68, 214.38 54.13, 216 78.75 M216 26.25 C216.51 42.26, 216.44 56.99, 216 78.75 M216 78.75 C215.37 96.75, 206.72 105.39, 189.75 105 M216 78.75 C216.77 95.89, 206.45 106.88, 189.75 105 M189.75 105 C152.43 105.55, 111.2 105.49, 26.25 105 M189.75 105 C129.79 105.07, 70.98 105.1, 26.25 105 M26.25 105 C9.72 104.92, -0.12 95.49, 0 78.75 M26.25 105 C8.82 104.13, -0.35 95.53, 0 78.75 M0 78.75 C-1.35 60.33, -0.65 43.28, 0 26.25 M0 78.75 C0.46 66.99, 0.82 56.57, 0 26.25 M0 26.25 C0.4 10.26, 10.73 -0.36, 26.25 0 M0 26.25 C1.66 8.7, 9.26 -1.73, 26.25 0" stroke="#000000" stroke-width="2" fill="none"></path></g><g transform="translate(661.1579210365666 40.36384055035171) rotate(0 56 32)"><text x="56" y="26" font-family="Helvetica, Segoe UI Emoji" font-size="28px" fill="#000000" text-anchor="middle" style="white-space: pre;" direction="ltr">Feature </text><text x="56" y="58" font-family="Helvetica, Segoe UI Emoji" font-size="28px" fill="#000000" text-anchor="middle" style="white-space: pre;" direction="ltr">selection</text></g><g stroke-linecap="round"><g transform="translate(496.5865219653148 65.4914415887398) rotate(0 34.33331298828128 0)"><path d="M0 0 C11.44 0, 57.22 0, 68.67 0 M0 0 C11.44 0, 57.22 0, 68.67 0" stroke="#000000" stroke-width="4" fill="none"></path></g><g transform="translate(496.5865219653148 65.4914415887398) rotate(0 34.33331298828128 0)"><path d="M40.48 10.26 C46.27 8.15, 52.07 6.04, 68.67 0 M40.48 10.26 C46.56 8.04, 52.65 5.83, 68.67 0" stroke="#000000" stroke-width="4" fill="none"></path></g><g transform="translate(496.5865219653148 65.4914415887398) rotate(0 34.33331298828128 0)"><path d="M40.48 -10.26 C46.27 -8.15, 52.07 -6.04, 68.67 0 M40.48 -10.26 C46.56 -8.04, 52.65 -5.83, 68.67 0" stroke="#000000" stroke-width="4" fill="none"></path></g></g><mask></mask><g stroke-linecap="round" transform="translate(233.35923676441183 17.06933498126068) rotate(0 108 53)"><path d="M25.1 1.56 L190.05 0.52 L206.42 2.81 L210.91 9.9 L215.14 21.27 L214.32 81.37 L210.77 94.4 L205.45 103.1 L190.95 106.59 L28.09 106.45 L10.94 101.64 L4.23 95.12 L0.8 86.38 L0.1 19.59 L5.36 9.09 L10.94 3.76 L27.94 0.52" stroke="none" stroke-width="0" fill="#fff89a"></path><path d="M26.5 0 M26.5 0 C68.61 -0.1, 105.47 -2.29, 189.5 0 M26.5 0 C62.6 -0.85, 98.4 -0.76, 189.5 0 M189.5 0 C206.41 -0.31, 215.38 9.7, 216 26.5 M189.5 0 C206.4 0.27, 214.25 8.38, 216 26.5 M216 26.5 C215.35 38.25, 216.65 52.35, 216 79.5 M216 26.5 C216.64 46.62, 215.7 65.49, 216 79.5 M216 79.5 C215.96 97.61, 205.67 107.43, 189.5 106 M216 79.5 C216.78 95.18, 207.97 104.71, 189.5 106 M189.5 106 C134.45 105.29, 77.57 104.05, 26.5 106 M189.5 106 C144.7 106.36, 99 105.98, 26.5 106 M26.5 106 C9.39 107.35, 1.23 97.33, 0 79.5 M26.5 106 C7.07 105.65, 1.93 96.67, 0 79.5 M0 79.5 C0.96 60.01, 0.22 41.21, 0 26.5 M0 79.5 C-0.45 62.17, -0.33 45.71, 0 26.5 M0 26.5 C1.09 9.51, 9.33 -0.09, 26.5 0 M0 26.5 C-1.58 10.88, 9.38 -0.82, 26.5 0" stroke="#000000" stroke-width="2" fill="none"></path></g><g transform="translate(252.85923676441183 38.06933498126068) rotate(0 88.5 32)"><text x="88.5" y="26" font-family="Helvetica, Segoe UI Emoji" font-size="28px" fill="#000000" text-anchor="middle" style="white-space: pre;" direction="ltr">Data </text><text x="88.5" y="58" font-family="Helvetica, Segoe UI Emoji" font-size="28px" fill="#000000" text-anchor="middle" style="white-space: pre;" direction="ltr">preprocessing</text></g><g stroke-linecap="round"><g transform="translate(858.5866440356274 66.1581896356148) rotate(0 34.33331298828125 0)"><path d="M0 0 C11.44 0, 57.22 0, 68.67 0 M0 0 C11.44 0, 57.22 0, 68.67 0" stroke="#000000" stroke-width="4" fill="none"></path></g><g transform="translate(858.5866440356274 66.1581896356148) rotate(0 34.33331298828125 0)"><path d="M40.48 10.26 C47.25 7.8, 54.02 5.33, 68.67 0 M40.48 10.26 C49.17 7.1, 57.86 3.93, 68.67 0" stroke="#000000" stroke-width="4" fill="none"></path></g><g transform="translate(858.5866440356274 66.1581896356148) rotate(0 34.33331298828125 0)"><path d="M40.48 -10.26 C47.25 -7.8, 54.02 -5.33, 68.67 0 M40.48 -10.26 C49.17 -7.1, 57.86 -3.93, 68.67 0" stroke="#000000" stroke-width="4" fill="none"></path></g></g><mask></mask><g stroke-linecap="round" transform="translate(960.2533310473459 23.991502623896054) rotate(0 108 53)"><path d="M26.08 0.02 L190.38 1.37 L204.94 4.66 L210.8 10.91 L216.93 21.52 L216.17 77.97 L211.97 97.33 L205.22 103.8 L190.46 107.35 L27.72 106.46 L10.82 103.89 L4 93.96 L-1.37 83.91 L-1.01 18.73 L2.63 11.45 L11.03 4.23 L26.41 -1.37" stroke="none" stroke-width="0" fill="#bffff0"></path><path d="M26.5 0 M26.5 0 C91.37 0.4, 152.03 0.39, 189.5 0 M26.5 0 C63.35 0.76, 99.16 0.47, 189.5 0 M189.5 0 C205.88 -1.45, 214.88 6.92, 216 26.5 M189.5 0 C204.93 -1.08, 217.69 6.86, 216 26.5 M216 26.5 C215.03 43.53, 216.21 61.59, 216 79.5 M216 26.5 C216.34 48.47, 215.46 69.05, 216 79.5 M216 79.5 C217.55 99.04, 205.54 105.64, 189.5 106 M216 79.5 C217.54 97.91, 205.48 107.05, 189.5 106 M189.5 106 C133.75 106.9, 76.73 107.65, 26.5 106 M189.5 106 C152.71 105.42, 115.51 105.34, 26.5 106 M26.5 106 C7.62 104.33, -0.23 97.72, 0 79.5 M26.5 106 C10.55 107.2, 0.58 96.51, 0 79.5 M0 79.5 C-0.78 60.07, -2.19 42.12, 0 26.5 M0 79.5 C1.13 66.01, -0.3 52.66, 0 26.5 M0 26.5 C-1.14 7.16, 7.67 1.47, 26.5 0 M0 26.5 C-0.62 8, 8.12 -0.77, 26.5 0" stroke="#000000" stroke-width="2" fill="none"></path></g><g transform="translate(987.7533310473459 44.991502623896054) rotate(0 80.5 32)"><text x="80.5" y="26" font-family="Helvetica, Segoe UI Emoji" font-size="28px" fill="#000000" text-anchor="middle" style="white-space: pre;" direction="ltr">Model </text><text x="80.5" y="58" font-family="Helvetica, Segoe UI Emoji" font-size="28px" fill="#000000" text-anchor="middle" style="white-space: pre;" direction="ltr">development</text></g><g stroke-linecap="round"><g transform="translate(1223.9198959887528 68.8248156121773) rotate(0 34.33331298828125 0)"><path d="M0 0 C11.44 0, 57.22 0, 68.67 0 M0 0 C11.44 0, 57.22 0, 68.67 0" stroke="#000000" stroke-width="4" fill="none"></path></g><g transform="translate(1223.9198959887528 68.8248156121773) rotate(0 34.33331298828125 0)"><path d="M40.48 10.26 C46.39 8.11, 52.31 5.95, 68.67 0 M40.48 10.26 C48.38 7.39, 56.27 4.51, 68.67 0" stroke="#000000" stroke-width="4" fill="none"></path></g><g transform="translate(1223.9198959887528 68.8248156121773) rotate(0 34.33331298828125 0)"><path d="M40.48 -10.26 C46.39 -8.11, 52.31 -5.95, 68.67 0 M40.48 -10.26 C48.38 -7.39, 56.27 -4.51, 68.67 0" stroke="#000000" stroke-width="4" fill="none"></path></g></g><mask></mask><g stroke-linecap="round" transform="translate(1320.373749245449 21.445294845436933) rotate(0 108 52.5)"><path d="M25.25 -1.56 L190.83 -0.31 L207.57 4.49 L213.62 9.18 L215.08 20.22 L215.6 76.77 L211.85 95.13 L204.95 101.11 L189.64 105.25 L25.9 104.76 L10.97 102.36 L4.49 92.86 L0.95 83.75 L-0.77 19.82 L3.87 10.6 L8.44 1.85 L25.03 -1.03" stroke="none" stroke-width="0" fill="#e7fbbe"></path><path d="M26.25 0 M26.25 0 C71.54 -1.02, 118.43 -0.51, 189.75 0 M26.25 0 C63.46 -0.35, 103.16 -0.55, 189.75 0 M189.75 0 C205.61 -1.07, 217.87 10.49, 216 26.25 M189.75 0 C206.9 -1.86, 217.02 9.39, 216 26.25 M216 26.25 C214.38 41.03, 215.53 52.69, 216 78.75 M216 26.25 C215.79 37.95, 216.93 49.42, 216 78.75 M216 78.75 C214.84 96.68, 205.77 103.76, 189.75 105 M216 78.75 C213.76 96.3, 209.49 104.37, 189.75 105 M189.75 105 C134.55 103.06, 81.28 104.5, 26.25 105 M189.75 105 C139.44 105.79, 88.36 105.75, 26.25 105 M26.25 105 C9.52 104.93, 1.74 97.7, 0 78.75 M26.25 105 C8.86 106.58, 0.21 96.2, 0 78.75 M0 78.75 C1.3 60.8, -0.83 41.13, 0 26.25 M0 78.75 C1.03 63.71, 0.69 51.08, 0 26.25 M0 26.25 C1.84 10.49, 10.48 1.07, 26.25 0 M0 26.25 C0.75 6.96, 7.79 0.96, 26.25 0" stroke="#000000" stroke-width="2" fill="none"></path></g><g transform="translate(1365.373749245449 57.94529484543693) rotate(0 63 16)"><text x="63" y="26" font-family="Helvetica, Segoe UI Emoji" font-size="28px" fill="#000000" text-anchor="middle" style="white-space: pre;" direction="ltr">Prediction</text></g><g stroke-linecap="round"><g transform="translate(1583.973308129945 72.32581415385266) rotate(0 34.33331298828125 0)"><path d="M0 0 C11.44 0, 57.22 0, 68.67 0 M0 0 C11.44 0, 57.22 0, 68.67 0" stroke="#000000" stroke-width="4" fill="none"></path></g><g transform="translate(1583.973308129945 72.32581415385266) rotate(0 34.33331298828125 0)"><path d="M40.48 10.26 C51.67 6.19, 62.87 2.11, 68.67 0 M40.48 10.26 C50.57 6.59, 60.67 2.91, 68.67 0" stroke="#000000" stroke-width="4" fill="none"></path></g><g transform="translate(1583.973308129945 72.32581415385266) rotate(0 34.33331298828125 0)"><path d="M40.48 -10.26 C51.67 -6.19, 62.87 -2.11, 68.67 0 M40.48 -10.26 C50.57 -6.59, 60.67 -2.91, 68.67 0" stroke="#000000" stroke-width="4" fill="none"></path></g></g><mask></mask><g stroke-linecap="round" transform="translate(1712.5223877112035 12.411079609025876) rotate(0 67.2119610607457 44.80797404049718)"><path d="M22.4 0 L112.02 0 L121.82 1.4 L125.67 3.15 L131.27 8.75 L134.07 17.15 L134.42 67.21 L134.07 72.46 L131.27 80.86 L125.67 86.47 L117.27 89.27 L112.02 89.62 L22.4 89.62 L17.15 89.27 L8.75 86.47 L3.15 80.86 L0.35 72.46 L0.35 17.15 L3.15 8.75 L5.6 5.6 L12.6 1.4 L22.4 0" stroke="none" stroke-width="0" fill="#ced4da"></path><path d="M22.4 0 M22.4 0 C55.94 0, 89.47 0, 112.02 0 M22.4 0 C45.35 0, 68.3 0, 112.02 0 M112.02 0 C126.96 0, 134.42 7.47, 134.42 22.4 M112.02 0 C126.96 0, 134.42 7.47, 134.42 22.4 M134.42 22.4 C134.42 38.54, 134.42 54.67, 134.42 67.21 M134.42 22.4 C134.42 37.49, 134.42 52.58, 134.42 67.21 M134.42 67.21 C134.42 82.15, 126.96 89.62, 112.02 89.62 M134.42 67.21 C134.42 82.15, 126.96 89.62, 112.02 89.62 M112.02 89.62 C92.48 89.62, 72.94 89.62, 22.4 89.62 M112.02 89.62 C89.76 89.62, 67.5 89.62, 22.4 89.62 M22.4 89.62 C7.47 89.62, 0 82.15, 0 67.21 M22.4 89.62 C7.47 89.62, 0 82.15, 0 67.21 M0 67.21 C0 57.21, 0 47.21, 0 22.4 M0 67.21 C0 49.48, 0 31.74, 0 22.4 M0 22.4 C0 7.47, 7.47 0, 22.4 0 M0 22.4 C0 7.47, 7.47 0, 22.4 0" stroke="#343a40" stroke-width="2" fill="none"></path></g><g stroke-linecap="round" transform="translate(1699.701458076073 112.00176316989885) rotate(0 78.97535984002525 10.810315415364471)"><path d="M5.41 0 L152.55 0 L154.91 0.34 L157.61 3.04 L157.95 16.22 L156.6 20.27 L152.55 21.62 L5.41 21.62 L1.35 20.27 L0 16.22 L0.34 3.04 L1.35 1.35 L5.41 0" stroke="none" stroke-width="0" fill="#ced4da"></path><path d="M5.41 0 M5.41 0 C39.65 0, 73.89 0, 152.55 0 M5.41 0 C54.13 0, 102.85 0, 152.55 0 M152.55 0 C156.15 0, 157.95 1.8, 157.95 5.41 M152.55 0 C156.15 0, 157.95 1.8, 157.95 5.41 M157.95 5.41 C157.95 9.31, 157.95 13.21, 157.95 16.22 M157.95 5.41 C157.95 8.54, 157.95 11.67, 157.95 16.22 M157.95 16.22 C157.95 19.82, 156.15 21.62, 152.55 21.62 M157.95 16.22 C157.95 19.82, 156.15 21.62, 152.55 21.62 M152.55 21.62 C121.52 21.62, 90.5 21.62, 5.41 21.62 M152.55 21.62 C103.77 21.62, 54.99 21.62, 5.41 21.62 M5.41 21.62 C1.8 21.62, 0 19.82, 0 16.22 M5.41 21.62 C1.8 21.62, 0 19.82, 0 16.22 M0 16.22 C0 12.88, 0 9.54, 0 5.41 M0 16.22 C0 12.56, 0 8.9, 0 5.41 M0 5.41 C0 1.8, 1.8 0, 5.41 0 M0 5.41 C0 1.8, 1.8 0, 5.41 0" stroke="#343a40" stroke-width="2" fill="none"></path></g><g stroke-linecap="round" transform="translate(1816.1534239002713 119.91917727692707) rotate(0 14.151531838736446 2.727955181107447)"><path d="M1.36 0 L26.94 0 L28.3 1.36 L28.3 4.09 L26.94 5.46 L1.36 5.46 L0 4.09 L0.34 0.34 L1.36 0" stroke="none" stroke-width="0" fill="#343a40"></path><path d="M1.36 0 M1.36 0 C10.85 0, 20.34 0, 26.94 0 M1.36 0 C7.32 0, 13.27 0, 26.94 0 M26.94 0 C27.85 0, 28.3 0.45, 28.3 1.36 M26.94 0 C27.85 0, 28.3 0.45, 28.3 1.36 M28.3 1.36 C28.3 2.34, 28.3 3.32, 28.3 4.09 M28.3 1.36 C28.3 2.35, 28.3 3.33, 28.3 4.09 M28.3 4.09 C28.3 5, 27.85 5.46, 26.94 5.46 M28.3 4.09 C28.3 5, 27.85 5.46, 26.94 5.46 M26.94 5.46 C18.15 5.46, 9.36 5.46, 1.36 5.46 M26.94 5.46 C21.55 5.46, 16.15 5.46, 1.36 5.46 M1.36 5.46 C0.45 5.46, 0 5, 0 4.09 M1.36 5.46 C0.45 5.46, 0 5, 0 4.09 M0 4.09 C0 3.43, 0 2.77, 0 1.36 M0 4.09 C0 3.25, 0 2.41, 0 1.36 M0 1.36 C0 0.45, 0.45 0, 1.36 0 M0 1.36 C0 0.45, 0.45 0, 1.36 0" stroke="#343a40" stroke-width="2" fill="none"></path></g><g stroke-linecap="round" transform="translate(1766.0098012224296 103.42456455395126) rotate(0 14.151531838736446 2.727955181107447)"><path d="M1.36 0 L26.94 0 L28.3 1.36 L28.3 4.09 L26.94 5.46 L1.36 5.46 L0 4.09 L0.34 0.34 L1.36 0" stroke="none" stroke-width="0" fill="#343a40"></path><path d="M1.36 0 M1.36 0 C10.07 0, 18.78 0, 26.94 0 M1.36 0 C7.94 0, 14.52 0, 26.94 0 M26.94 0 C27.85 0, 28.3 0.45, 28.3 1.36 M26.94 0 C27.85 0, 28.3 0.45, 28.3 1.36 M28.3 1.36 C28.3 2.38, 28.3 3.39, 28.3 4.09 M28.3 1.36 C28.3 2.03, 28.3 2.7, 28.3 4.09 M28.3 4.09 C28.3 5, 27.85 5.46, 26.94 5.46 M28.3 4.09 C28.3 5, 27.85 5.46, 26.94 5.46 M26.94 5.46 C21.35 5.46, 15.75 5.46, 1.36 5.46 M26.94 5.46 C17.65 5.46, 8.36 5.46, 1.36 5.46 M1.36 5.46 C0.45 5.46, 0 5, 0 4.09 M1.36 5.46 C0.45 5.46, 0 5, 0 4.09 M0 4.09 C0 3.54, 0 2.99, 0 1.36 M0 4.09 C0 3.5, 0 2.91, 0 1.36 M0 1.36 C0 0.45, 0.45 0, 1.36 0 M0 1.36 C0 0.45, 0.45 0, 1.36 0" stroke="#343a40" stroke-width="2" fill="none"></path></g><g stroke-linecap="round" transform="translate(1724.0667493980684 22.778752253993463) rotate(0 55.7534016596685 34.97031776107231)"><path d="M17.49 0 L94.02 0 L101.67 1.09 L104.68 2.46 L109.05 6.83 L111.23 13.39 L111.51 52.46 L111.23 56.55 L109.05 63.11 L104.68 67.48 L101.67 68.85 L94.02 69.94 L17.49 69.94 L13.39 69.67 L6.83 67.48 L2.46 63.11 L0.27 56.55 L0.27 13.39 L2.46 6.83 L6.83 2.46 L9.84 1.09 L17.49 0" stroke="none" stroke-width="0" fill="#343a40"></path><path d="M17.49 0 M17.49 0 C35.51 0, 53.53 0, 94.02 0 M17.49 0 C38.66 0, 59.84 0, 94.02 0 M94.02 0 C105.68 0, 111.51 5.83, 111.51 17.49 M94.02 0 C105.68 0, 111.51 5.83, 111.51 17.49 M111.51 17.49 C111.51 25.55, 111.51 33.61, 111.51 52.46 M111.51 17.49 C111.51 28.98, 111.51 40.47, 111.51 52.46 M111.51 52.46 C111.51 64.11, 105.68 69.94, 94.02 69.94 M111.51 52.46 C111.51 64.11, 105.68 69.94, 94.02 69.94 M94.02 69.94 C64.21 69.94, 34.41 69.94, 17.49 69.94 M94.02 69.94 C72.45 69.94, 50.88 69.94, 17.49 69.94 M17.49 69.94 C5.83 69.94, 0 64.11, 0 52.46 M17.49 69.94 C5.83 69.94, 0 64.11, 0 52.46 M0 52.46 C0 43.08, 0 33.71, 0 17.49 M0 52.46 C0 43.14, 0 33.82, 0 17.49 M0 17.49 C0 5.83, 5.83 0, 17.49 0 M0 17.49 C0 5.83, 5.83 0, 17.49 0" stroke="#343a40" stroke-width="2" fill="none"></path></g><g transform="translate(1747.6269593199768 177.1042550031826) rotate(0 37.823602002813686 20.231228978249206)"><text x="0" y="32.462457956498405" font-family="Helvetica, Segoe UI Emoji" font-size="35.18474604912905px" fill="#000000" text-anchor="start" style="white-space: pre;" direction="ltr">User</text></g></svg>